<svg width="151" height="41" viewBox="0 0 151 41" fill="none" xmlns="http://www.w3.org/2000/svg">
<path d="M3.16428 28.5843C1.06728 31.6842 0.868357 35.1322 1.17503 38.6797C1.16851 38.8299 1.19527 38.9796 1.2534 39.1183C1.31152 39.2569 1.39958 39.3809 1.51126 39.4815C1.62295 39.5821 1.75549 39.6568 1.89941 39.7001C2.04332 39.7435 2.19505 39.7545 2.34372 39.7324C4.40756 39.7324 6.48798 39.7324 8.54354 39.7324C9.23977 39.7324 9.63762 39.434 9.70393 38.8041C10.1109 36.0424 9.82612 33.2229 8.87508 30.5984C8.55461 29.8978 8.19771 29.2145 7.80586 28.5511C7.80586 28.5511 7.88045 28.4434 7.94676 28.3688C8.28308 27.9871 8.52457 27.5314 8.65158 27.0388C8.77858 26.5462 8.78753 26.0305 8.67768 25.5338C8.56784 25.0371 8.3423 24.5733 8.01942 24.1801C7.69654 23.787 7.28543 23.4756 6.81953 23.2713C6.60403 23.1719 6.46312 23.089 6.4714 22.8155C6.4714 19.583 6.4714 16.3587 6.4714 13.1262C6.46706 13.0517 6.46706 12.9769 6.4714 12.9024C6.63718 12.9687 6.77808 13.0101 6.91899 13.0765C8.0628 13.6152 9.19833 14.1788 10.3587 14.7342C10.4841 14.7774 10.5902 14.8634 10.6584 14.9771C10.7266 15.0907 10.7526 15.2249 10.7317 15.3558C10.7317 20.0803 10.7317 24.8047 10.7317 29.5292C10.7097 29.747 10.7562 29.9662 10.8646 30.1564C10.9731 30.3465 11.1381 30.4981 11.3368 30.5901C13.6343 31.7838 15.9975 32.8464 18.4152 33.7729C22.9981 35.3951 27.8602 36.08 32.7129 35.787C37.7907 35.4587 42.746 34.0845 47.2676 31.7505C48.0052 31.3775 48.7429 31.0128 49.4972 30.673C49.7373 30.5823 49.9414 30.416 50.0789 30.1993C50.2164 29.9826 50.2799 29.7271 50.2597 29.4712C50.2597 24.7882 50.2597 20.1051 50.2597 15.3807C50.2425 15.2233 50.2801 15.0648 50.3662 14.9319C50.4523 14.7991 50.5815 14.6999 50.7322 14.6513C53.5254 13.3334 56.3104 11.9989 59.1036 10.6728C59.2874 10.6051 59.4474 10.485 59.5638 10.3274C59.6801 10.1698 59.7478 9.98153 59.7584 9.78591C59.7765 9.60256 59.7397 9.41796 59.6527 9.25559C59.5656 9.09323 59.4321 8.96045 59.2694 8.87416C59.0997 8.79213 58.9219 8.72823 58.7389 8.68353L40.5041 3.66897C37.4042 2.84011 34.3126 2.01126 31.221 1.09952C30.755 0.966828 30.2613 0.966828 29.7953 1.09952C21.9047 3.30979 14.0112 5.48969 6.115 7.63918L2.09506 8.74984C1.56459 8.89903 1.26621 9.18913 1.26621 9.57869C1.2355 9.80944 1.2867 10.0437 1.41089 10.2405C1.53508 10.4374 1.72439 10.5845 1.94587 10.6562C2.70012 11.0209 3.45438 11.3856 4.20864 11.7337C4.30393 11.7653 4.38551 11.8286 4.4398 11.9131C4.49409 11.9975 4.51782 12.0981 4.50703 12.1979C4.50703 15.7205 4.50703 19.2431 4.50703 22.7657C4.49857 22.8509 4.47109 22.9332 4.42662 23.0063C4.38215 23.0795 4.32182 23.1417 4.25008 23.1885C3.76148 23.3868 3.32865 23.7013 2.98914 24.1048C2.64963 24.5082 2.41369 24.9885 2.30181 25.5038C2.18993 26.0191 2.20549 26.5539 2.34711 27.0618C2.48874 27.5698 2.75218 28.0355 3.11455 28.4185L3.16428 28.5843ZM5.07893 10.0014C5.29443 9.92681 5.41877 9.87708 5.54309 9.84392C13.3758 7.6889 21.2084 5.55046 29.0245 3.354C29.9709 3.07207 30.979 3.07207 31.9255 3.354C39.2525 5.40127 46.5962 7.40709 53.9233 9.42949L55.8959 9.98482C55.6638 10.1009 55.5395 10.1755 55.4069 10.2335L47.0023 14.2368L30.8728 21.9535C30.7564 22.0188 30.6251 22.0531 30.4916 22.0531C30.358 22.0531 30.2267 22.0188 30.1103 21.9535L24.2254 19.1354L6.86926 10.8468C6.25591 10.5982 5.69229 10.3164 5.03749 10.0014H5.07893ZM12.7292 15.8614L13.2846 16.11L29.6876 23.9759C29.9118 24.0963 30.1624 24.1593 30.417 24.1593C30.6715 24.1593 30.9221 24.0963 31.1464 23.9759C33.4589 22.8486 35.7879 21.7545 38.1087 20.6605L47.856 16.0106L48.171 15.8946C48.171 15.994 48.171 16.0603 48.171 16.1266C48.171 20.3206 48.171 24.5174 48.171 28.7169C48.1791 28.8229 48.1507 28.9285 48.0903 29.016C48.03 29.1035 47.9414 29.1676 47.8395 29.1976C47.0106 29.5789 46.1818 30.0265 45.3529 30.3746C37.9945 33.9852 29.5809 34.821 21.656 32.7286C18.5784 31.8576 15.6068 30.6484 12.7956 29.1231C12.7274 29.0703 12.6724 29.0024 12.635 28.9247C12.5976 28.847 12.5788 28.7617 12.5801 28.6755C12.5801 24.5478 12.5801 20.4173 12.5801 16.2841C12.6629 16.1598 12.6795 16.0437 12.6878 15.8614H12.7292ZM5.45192 37.7597H3.42951C3.18086 37.7597 3.06482 37.7017 3.05653 37.4282C2.88553 35.3749 3.16851 33.3092 3.88539 31.3775C4.14574 30.7799 4.48893 30.2218 4.90487 29.7198C4.9632 29.6326 5.04211 29.5612 5.13464 29.5117C5.22716 29.4623 5.33044 29.4365 5.43534 29.4365C5.54024 29.4365 5.64352 29.4623 5.73604 29.5117C5.82856 29.5612 5.90748 29.6326 5.9658 29.7198C6.30187 30.0972 6.5811 30.5217 6.79466 30.9797C7.63979 33.0066 7.98929 35.2059 7.81415 37.395C7.81415 37.6602 7.68982 37.7431 7.44117 37.7348C6.76151 37.7514 6.09013 37.7597 5.41047 37.7597H5.45192ZM5.45192 27.5068C5.28321 27.5079 5.11593 27.4757 4.95964 27.4122C4.80335 27.3486 4.66112 27.2549 4.54105 27.1364C4.42098 27.0178 4.32543 26.8768 4.25987 26.7214C4.1943 26.5659 4.15999 26.3991 4.1589 26.2304C4.18491 25.9064 4.33197 25.6041 4.57081 25.3836C4.80965 25.1632 5.12275 25.0408 5.44777 25.0408C5.77279 25.0408 6.08589 25.1632 6.32473 25.3836C6.56357 25.6041 6.71064 25.9064 6.73664 26.2304C6.73677 26.4022 6.70218 26.5724 6.63495 26.7306C6.56771 26.8888 6.46922 27.0318 6.34537 27.151C6.22153 27.2702 6.07488 27.3631 5.91423 27.4243C5.75358 27.4854 5.58223 27.5135 5.41047 27.5068H5.45192Z" fill="#F4A024" stroke="#F4A024" stroke-width="0.85" stroke-miterlimit="10"/>
<path d="M5.03748 10.0014C5.69227 10.3164 6.25589 10.5982 6.8278 10.8303L24.184 19.1188L30.0688 21.9369C30.1853 22.0022 30.3166 22.0366 30.4501 22.0366C30.5836 22.0366 30.7149 22.0022 30.8314 21.9369L46.9609 14.2203L55.382 10.2335C55.5146 10.1755 55.639 10.1009 55.871 9.98482L53.8984 9.42949C46.5713 7.40708 39.2277 5.40126 31.9006 3.35399C30.9542 3.07207 29.9461 3.07207 28.9996 3.35399C21.1835 5.55045 13.3509 7.68889 5.51821 9.84391C5.3773 9.87707 5.25298 9.9268 5.03748 10.0014Z" fill="#F4A024" stroke="#F4A024" stroke-width="0.85" stroke-miterlimit="10"/>
<path d="M5.4105 37.7597C6.09016 37.7597 6.76154 37.7597 7.4412 37.7597C7.68985 37.7597 7.80589 37.6851 7.81418 37.4199C7.98932 35.2308 7.63981 33.0315 6.79468 31.0045C6.58113 30.5465 6.3019 30.1221 5.96583 29.7447C5.90751 29.6575 5.82859 29.586 5.73607 29.5366C5.64354 29.4872 5.54026 29.4613 5.43537 29.4613C5.33047 29.4613 5.22719 29.4872 5.13466 29.5366C5.04214 29.586 4.96323 29.6575 4.9049 29.7447C4.48896 30.2467 4.14577 30.8047 3.88541 31.4024C3.16854 33.334 2.88556 35.3998 3.05656 37.453C3.05656 37.7265 3.18089 37.7846 3.42954 37.7846L5.4105 37.7597Z" fill="#F4A024" stroke="#F4A024" stroke-width="0.85" stroke-miterlimit="10"/>
<path d="M5.41044 27.5068C5.57876 27.5079 5.74564 27.4757 5.90146 27.412C6.05728 27.3484 6.19897 27.2545 6.31838 27.1359C6.43778 27.0173 6.53255 26.8762 6.59721 26.7208C6.66188 26.5653 6.69517 26.3987 6.69517 26.2304C6.66916 25.9064 6.5221 25.6041 6.28326 25.3836C6.04442 25.1632 5.73132 25.0408 5.4063 25.0408C5.08128 25.0408 4.76818 25.1632 4.52934 25.3836C4.29049 25.6041 4.14343 25.9064 4.11743 26.2304C4.11852 26.3991 4.15282 26.5659 4.21839 26.7214C4.28396 26.8768 4.3795 27.0179 4.49957 27.1364C4.61964 27.2549 4.76188 27.3486 4.91816 27.4122C5.07445 27.4757 5.24173 27.5079 5.41044 27.5068Z" fill="#F4A024" stroke="#F4A024" stroke-width="0.85" stroke-miterlimit="10"/>
<path opacity="0.5" d="M12.663 16.2841L29.4721 24.1831C29.7922 24.3343 30.1417 24.4128 30.4957 24.4128C30.8497 24.4128 31.1993 24.3343 31.5194 24.1831L48.1876 16.1846L47.9224 29.1893C47.9224 29.1893 29.555 39.7572 12.7044 28.6672L12.663 16.2841Z" fill="#FFA024"/>
<path d="M78.296 13.824H71.128V9.6H90.648V13.824H83.48V32H78.296V13.824ZM108.199 23.456C108.199 23.52 108.167 23.968 108.103 24.8H95.0793C95.3139 25.8667 95.8686 26.7093 96.7433 27.328C97.6179 27.9467 98.7059 28.256 100.007 28.256C100.903 28.256 101.693 28.128 102.375 27.872C103.079 27.5947 103.73 27.168 104.327 26.592L106.983 29.472C105.362 31.328 102.994 32.256 99.8793 32.256C97.9379 32.256 96.2206 31.8827 94.7273 31.136C93.2339 30.368 92.0819 29.312 91.2713 27.968C90.4606 26.624 90.0553 25.0987 90.0553 23.392C90.0553 21.7067 90.4499 20.192 91.2393 18.848C92.0499 17.4827 93.1486 16.4267 94.5353 15.68C95.9433 14.912 97.5113 14.528 99.2393 14.528C100.925 14.528 102.45 14.8907 103.815 15.616C105.181 16.3413 106.247 17.3867 107.015 18.752C107.805 20.096 108.199 21.664 108.199 23.456ZM99.2713 18.304C98.1406 18.304 97.1913 18.624 96.4233 19.264C95.6553 19.904 95.1859 20.7787 95.0153 21.888H103.495C103.325 20.8 102.855 19.936 102.087 19.296C101.319 18.6347 100.381 18.304 99.2713 18.304ZM119.843 32.256C118.008 32.256 116.355 31.8827 114.883 31.136C113.432 30.368 112.291 29.312 111.459 27.968C110.648 26.624 110.243 25.0987 110.243 23.392C110.243 21.6853 110.648 20.16 111.459 18.816C112.291 17.472 113.432 16.4267 114.883 15.68C116.355 14.912 118.008 14.528 119.843 14.528C121.656 14.528 123.235 14.912 124.579 15.68C125.944 16.4267 126.936 17.504 127.555 18.912L123.683 20.992C122.787 19.4133 121.496 18.624 119.811 18.624C118.509 18.624 117.432 19.0507 116.579 19.904C115.725 20.7573 115.299 21.92 115.299 23.392C115.299 24.864 115.725 26.0267 116.579 26.88C117.432 27.7333 118.509 28.16 119.811 28.16C121.517 28.16 122.808 27.3707 123.683 25.792L127.555 27.904C126.936 29.2693 125.944 30.336 124.579 31.104C123.235 31.872 121.656 32.256 119.843 32.256ZM140.768 14.528C142.901 14.528 144.619 15.168 145.92 16.448C147.243 17.728 147.904 19.6267 147.904 22.144V32H142.912V22.912C142.912 21.5467 142.613 20.5333 142.016 19.872C141.419 19.1893 140.555 18.848 139.424 18.848C138.165 18.848 137.163 19.2427 136.416 20.032C135.669 20.8 135.296 21.952 135.296 23.488V32H130.304V8.256H135.296V16.576C135.957 15.9147 136.757 15.4133 137.696 15.072C138.635 14.7093 139.659 14.528 140.768 14.528Z" fill="#61B3F4"/>
</svg>
